<svg width="44" height="41" viewBox="0 0 44 41" fill="none" xmlns="http://www.w3.org/2000/svg">
<g filter="url(#filter0_d_67_2150)">
<path fill-rule="evenodd" clip-rule="evenodd" d="M38.9634 26.7158L30.0138 24.2642C29.1934 24.0368 28.4917 23.4909 28.0667 22.7377L22.7246 13.2702C22.2995 12.5172 22.1859 11.6224 22.4033 10.7833L24.8002 1.62422C24.9879 0.901396 25.9417 0.769975 26.3073 1.42204L39.8875 25.4825C40.2532 26.1294 39.67 26.9129 38.9634 26.7158ZM19.1999 1.62549L21.5966 10.7796C21.8191 11.6187 21.7004 12.5134 21.2755 13.2664L15.9333 22.7339C15.5084 23.4871 14.8066 24.0381 13.9862 24.2605L5.03664 26.717C4.32995 26.9091 3.74682 26.1307 4.11251 25.4837L17.6926 1.4233C18.0583 0.776305 19.0121 0.902671 19.1999 1.62549ZM14.3873 25.0322L7.83452 31.7348C7.31561 32.2655 7.68624 33.1702 8.41768 33.1702H35.5828C36.3192 33.1702 36.6849 32.2655 36.166 31.7348L29.6131 25.0322C29.0102 24.4155 28.1948 24.0717 27.3448 24.0717H16.6557C15.8057 24.0717 14.9903 24.4155 14.3873 25.0322Z" fill="url(#paint0_linear_67_2150)"/>
</g>
<defs>
<filter id="filter0_d_67_2150" x="0" y="0" width="44" height="40.1704" filterUnits="userSpaceOnUse" color-interpolation-filters="sRGB">
<feFlood flood-opacity="0" result="BackgroundImageFix"/>
<feColorMatrix in="SourceAlpha" type="matrix" values="0 0 0 0 0 0 0 0 0 0 0 0 0 0 0 0 0 0 127 0" result="hardAlpha"/>
<feOffset dy="3"/>
<feGaussianBlur stdDeviation="2"/>
<feComposite in2="hardAlpha" operator="out"/>
<feColorMatrix type="matrix" values="0 0 0 0 0 0 0 0 0 0 0 0 0 0 0 0 0 0 0.05 0"/>
<feBlend mode="normal" in2="BackgroundImageFix" result="effect1_dropShadow_67_2150"/>
<feBlend mode="normal" in="SourceGraphic" in2="effect1_dropShadow_67_2150" result="shape"/>
</filter>
<linearGradient id="paint0_linear_67_2150" x1="4" y1="1" x2="37.4134" y2="35.6636" gradientUnits="userSpaceOnUse">
<stop stop-color="#5DB6F9"/>
<stop offset="1" stop-color="#4F93F7"/>
</linearGradient>
</defs>
</svg>
